<?xml version="1.0" encoding="utf-8"?>
<!-- Generator: Adobe Illustrator 21.0.2, SVG Export Plug-In . SVG Version: 6.00 Build 0)  -->
<svg version="1.1" id="Layer_1" xmlns="http://www.w3.org/2000/svg" xmlns:xlink="http://www.w3.org/1999/xlink" x="0px" y="0px"
	 viewBox="0 0 390 115" style="enable-background:new 0 0 390 115;" xml:space="preserve">
<style type="text/css">
	.st0{fill:none;}
	.st1{fill:#28A505;}
	.st2{fill:#666465;}
</style>
<g>
	<rect x="-23.1" y="-5.9" class="st0" width="389.8" height="126.9"/>
	<g>
		<g>
			<path class="st1" d="M49.3,20.8c0.2,0,0.4,0.2,0.4,0.4v9.6c0,0.2-0.2,0.4-0.4,0.4H14.4c-0.2,0-0.4,0.2-0.4,0.4v42.3
				c0,0.2-0.2,0.4-0.4,0.4H4c-0.2,0-0.4-0.2-0.4-0.4V21.2c0-0.2,0.2-0.4,0.4-0.4C4,20.8,49.3,20.8,49.3,20.8z M26.4,42.4
				c-0.3-0.3-0.6,0-0.6,0.3v29.6c0,0.5,0.3,0.6,0.6,0.2l15.2-14.1c0.2-0.2,0.2-0.5,0-0.7L26.4,42.4z"/>
			<path d="M80,51.7H64.1v5.7h13.2c0.4,0,0.6,0.2,0.6,0.5c0,3.7,0,5,0,5.8c0,0.4-0.2,0.5-0.6,0.5H64.1c0,0,0,6.3,0,9.4
				c0,0.5,0,0.6-0.4,0.6h-7c-0.3,0-0.3,0-0.3-0.6c0-8.2,0-18.5,0-28c0-0.5,0-0.6,0.3-0.6H80c0.3,0,0.3,0.4,0.3,0.4v5.8
				C80.4,51.4,80.4,51.7,80,51.7z M113.7,59.8c0-8.4-6.6-15.3-15.3-15.3s-15.3,6.8-15.3,15.3c0,8.4,6.6,15.2,15.3,15.2
				S113.7,68.2,113.7,59.8z M105.7,59.8c0,4.4-2.7,7.9-7.2,7.9c-4.6,0-7.2-3.4-7.2-7.9c0-4.4,2.6-7.9,7.2-7.9
				C103,51.8,105.7,55.3,105.7,59.8z M144,73.1c-2.5-4-4.9-8.4-6.1-10.1c2.6-1.2,4-4,4-8c0-5.3-3.5-9.8-10.1-9.8h-13.3
				c-0.1,0-0.3,0-0.3,0.4c0,10.3,0,17.3,0,28.4c0,0.4,0,0.4,0.3,0.4c2.6,0,4.3,0,7,0c0.3,0,0.3,0,0.3-0.4c0-3.4,0-8.1,0-8.1l4.9-0.1
				c0,0,3.1,4.9,4.6,7.7c0.4,0.8,0.6,0.9,0.9,0.9h7.6C144.4,74.2,144.5,73.9,144,73.1z M133.8,55.5c0,2.5-1.3,4.2-3.6,4.3l-4.3,0.1
				v-8.4h4.3C132.6,51.5,133.8,53.2,133.8,55.5z M161.2,75.1c8.1,0,13-5.6,14-10.9c0.1-0.5,0-0.6-0.2-0.6h-7c-0.3,0-0.4,0.2-0.4,0.3
				c-1.3,2.6-3.3,3.8-6.2,3.8c-4.3,0-7-3.4-7-8v0.1c0-4.6,2.8-8,7-8c3,0,5,1.2,6.2,3.8c0,0.1,0.1,0.3,0.4,0.3h7
				c0.2,0,0.3-0.1,0.2-0.6c-1.1-5.3-5.9-10.9-14-10.9c-8.4,0-15,6.5-15,15.3C146.2,68.6,152.8,75.1,161.2,75.1z M200.3,73.6
				c0-1.8,0-3.4,0-5.5c0-0.5-0.1-0.6-0.6-0.6h-12.5v-4.9h12c0.4,0,0.4-0.1,0.4-0.6c0-1.7,0-3.1,0-5.2c0-0.5,0-0.6-0.4-0.6h-12v-4.9
				h12.3c0.3,0,0.5-0.1,0.5-0.5c0-1.9,0-3.1,0-5.2c0-0.5,0-0.6-0.5-0.6h-19.4c-0.4,0-0.4,0-0.4,0.4c0,8.3,0,20.6,0,28.1
				c0,0.5,0,0.6,0.5,0.6h19.7C200.3,74.2,200.3,74.2,200.3,73.6z M232.9,56.3c0-6.6-3.8-11.2-10.2-11.2H207c-0.2,0-0.4,0-0.4,0.4
				c0,10.3,0,17.3,0,28.4c0,0.4,0,0.4,0.4,0.4c2.5,0,4.3,0,7,0c0.3,0,0.4,0,0.4-0.4c0-3.4,0-7.1,0-7.1s7.7,0.2,8.9,0
				C228.8,66.1,232.9,63.3,232.9,56.3z M225,56c0,2.4-1.2,4.3-4.2,4.5h-6.4v-9h6.3C223.3,51.5,225,53.1,225,56z M267,59.8
				c0-8.4-6.6-15.3-15.3-15.3c-8.7,0-15.3,6.8-15.3,15.3c0,8.4,6.6,15.2,15.3,15.2S267,68.2,267,59.8z M258.9,59.8
				c0,4.4-2.7,7.9-7.2,7.9c-4.6,0-7.2-3.4-7.2-7.9c0-4.4,2.6-7.9,7.2-7.9C256.3,51.8,258.9,55.3,258.9,59.8z M279.2,73.9
				c0-6.8,0-21.7,0-28.4c0-0.3,0-0.4-0.4-0.4c-2.8,0-4.4,0-7.1,0c-0.4,0-0.4,0-0.4,0.4c0,10.3,0,17.3,0,28.4c0,0.4,0,0.4,0.4,0.4
				c2.7,0,4.3,0,7.1,0C279.2,74.2,279.2,74.2,279.2,73.9z M340,52.4c0-2.4,0-4,0-6.9c0-0.3,0-0.4-0.3-0.4h-25
				c-0.3,0-0.3,0.1-0.3,0.4c0,2.9,0,4.5,0,6.9c0,0.3,0,0.3,0.3,0.3l8.7-0.1c0,0,0,15.9,0,21.2c0,0.4,0,0.4,0.4,0.4
				c2.7,0,4.2,0,7.1,0c0.3,0,0.4,0,0.4-0.4c0-3.4,0-21.2,0-21.2l8.5,0.1C339.9,52.7,340,52.7,340,52.4z M309.9,73.2v-4.1
				c0-7.8,0-16.5,0-23.5c0-0.4,0-0.5-0.4-0.5c-2.7,0-4,0-6.5,0c-0.3,0-0.3,0-0.3,0.5v13.7c0,0-10.7-9.8-15.8-13.8
				c-1.3-1.1-1.4,0.1-1.4,0.5v0.1v4.1l0,0c0,8.5,0,14.3,0,23.6c0,0.2,0.1,0.4,0.4,0.4c2.6,0,3.8,0,6.5,0c0.4,0,0.4,0,0.4-0.4V61.2
				c0,0,8.8,7.4,15.3,12.3C309.7,75,309.9,74,309.9,73.2z"/>
		</g>
		<path class="st2" d="M278.2,86.8h-0.7v-1.9h0.7V86.8z M308.3,91.9v-5c0-0.5-0.2-1-0.6-1.3s-0.8-0.5-1.4-0.5
			c-0.4,0-0.8,0.1-1.2,0.2c-0.4,0.1-0.7,0.3-0.9,0.5v-2.4H301V92h3.3v-4.7h0.7V92L308.3,91.9L308.3,91.9z M281.6,85.6
			c0-0.6-0.2-1.2-0.6-1.6s-0.9-0.7-1.6-0.7H274v8.6h3.4v-3.2h0.8v3.2h3.4v-2.7c0-0.5-0.1-0.8-0.3-1.1c-0.3-0.3-0.5-0.5-0.8-0.6
			c0.4-0.2,0.6-0.4,0.8-0.7C281.5,86.5,281.6,86.1,281.6,85.6 M323.6,88.4c0-1.5-0.4-2.4-1.1-3c-0.5-0.4-1.4-0.6-2.6-0.6
			s-2.1,0.2-2.6,0.6c-0.7,0.5-1.1,1.5-1.1,3s0.4,2.5,1.1,3c0.5,0.4,1.4,0.5,2.6,0.5s2.1-0.2,2.6-0.5
			C323.3,90.9,323.6,89.9,323.6,88.4 M316,88.4c0-1.1-0.3-2-0.7-2.5c-0.6-0.7-1.6-1-3-1c-1.2,0-2.1,0.2-2.6,0.5
			c-0.8,0.5-1.1,1.5-1.1,3c0,1.4,0.4,2.4,1.2,3c0.5,0.4,1.4,0.6,2.5,0.6s2-0.2,2.5-0.5s0.9-0.9,1.1-1.6c0-0.1,0.1-0.3,0.1-0.4h-3.3
			v1H312v-1.6h4.1C315.9,88.7,316,88.5,316,88.4 M289.1,91.9v-4.3c0-0.9-0.3-1.5-1-2c-0.6-0.4-1.4-0.7-2.4-0.6c-1.1,0-2,0.2-2.7,0.7
			c-0.6,0.4-0.8,0.8-0.8,1.4v0.3h3.1v-0.8h0.7v1.3h-1.6c-1.6,0-2.4,0.7-2.4,1.9c0,1.6,0.7,2.3,2.1,2.3c0.9,0,1.5-0.3,2-1V92h3V91.9z
			 M331.2,91.9V87c0-0.5-0.2-1-0.7-1.4c-0.4-0.4-0.9-0.6-1.5-0.5c-0.9,0-1.6,0.3-2,0.7v-0.6h-3V92h3.2v-4.7h0.7V92L331.2,91.9
			L331.2,91.9z M300.7,87.1v-1.9h-1.1v-2h-3.3v2h-2.6l-1,3.5l-0.9-3.5h-3.2l2.5,6.6l-0.9,2.5h3.2l2.9-7.5v5h3.3v-4.7H300.7z
			 M312.6,87.7h-0.7v-1.3h0.7V87.7z M320.2,90.4h-0.7v-4h0.7V90.4z M285.9,90.2h-0.7v-1.5h0.7V90.2z M215.8,85.1
			c-2.1,0-3.3,1.2-3.3,3.4c0,2.1,1.2,3.4,3.3,3.4s3.3-1.3,3.3-3.4S217.9,85.1,215.8,85.1z M215.8,90.3c-1.1,0-1.2-1.4-1.2-1.8
			c0-0.5,0.1-1.8,1.2-1.8c1.1,0,1.2,1.3,1.2,1.8S216.9,90.3,215.8,90.3z M226.1,89.1l-0.7-3.9H223l-0.7,3.8l-0.6-3.8h-2.1l1.5,6.6
			h2.5l0.7-3.9l0.7,3.9h2.5l1.5-6.6h-2L226.1,89.1z M231.8,89.3h2.6v-1.6h-2.6v-0.9h2.7v-1.6h-4.8v6.6h4.9v-1.6h-2.8V89.3z
			 M244.8,89.3h2.6v-1.6h-2.6v-0.9h2.7v-1.6h-4.8v6.6h4.9v-1.6h-2.8L244.8,89.3L244.8,89.3z M251.4,85.2H249v6.6h2.5
			c2.5,0,3.9-1.1,3.9-3.3C255.3,85.6,253.1,85.2,251.4,85.2z M251.5,90.2H251v-3.4h0.4c1.1,0,1.7,0.6,1.7,1.7
			C253.2,89.7,252.6,90.2,251.5,90.2z M268,85.3l-1.1,2.2l-1.1-2.2h-2.4l2.4,4.1v2.5h2.1v-2.5l2.4-4.1H268z M208.8,85.3h-2.2v6.6
			h2.1v-2.2h0.4c1.7,0,2.7-0.8,2.7-2.2C211.7,86,210.8,85.3,208.8,85.3z M208.9,88.2h-0.3v-1.5h0.3c0.6,0,0.9,0.2,0.9,0.7
			C209.8,88,209.5,88.2,208.9,88.2z M240.9,89.9c-0.1-0.2-0.1-0.3-0.2-0.4c-0.1-0.3-0.2-0.6-0.4-0.8c0.6-0.3,0.9-0.9,0.9-1.6
			c0-1.1-0.8-1.8-2.2-1.8h-3.2v6.6h2.1v-2.5h0.1c0.4,0,0.6,0.1,1,1.2l0.4,1.3h2.2L240.9,89.9z M238.1,87.9h-0.3v-1.2h0.3
			c0.8,0,1.1,0.2,1.1,0.6C239.3,87.9,238.8,87.9,238.1,87.9z M262.4,88.5c0.5-0.3,0.8-0.8,0.8-1.4c0-1.1-0.9-1.8-2.2-1.8h-3.1v6.6
			h2.8c1.7,0,2.6-0.7,2.6-2C263.3,89.4,263.1,88.8,262.4,88.5z M259.8,86.7h0.4c0.7,0,1,0.1,1,0.5s-0.3,0.6-1,0.6h-0.4V86.7z
			 M260.2,90.4h-0.4v-1.3h0.4c0.7,0,1.1,0.1,1.1,0.6C261.4,90.2,261,90.4,260.2,90.4z"/>
	</g>
</g>
</svg>
